<?xml version="1.0" encoding="UTF-8" standalone="no"?>
<svg
   xmlns:dc="http://purl.org/dc/elements/1.1/"
   xmlns:cc="http://creativecommons.org/ns#"
   xmlns:rdf="http://www.w3.org/1999/02/22-rdf-syntax-ns#"
   xmlns:svg="http://www.w3.org/2000/svg"
   xmlns="http://www.w3.org/2000/svg"
   xmlns:sodipodi="http://sodipodi.sourceforge.net/DTD/sodipodi-0.dtd"
   xmlns:inkscape="http://www.inkscape.org/namespaces/inkscape"
   width="1000.0739"
   height="211.05791"
   viewBox="0 0 264.60288 55.842405"
   version="1.1"
   id="svg8"
   inkscape:version="1.0.2 (e86c870879, 2021-01-15, custom)"
   sodipodi:docname="Viva_Co_Id_(2017).svg">
  <defs
     id="defs2" />
  <sodipodi:namedview
     id="base"
     pagecolor="#ffffff"
     bordercolor="#666666"
     borderopacity="1.0"
     inkscape:pageopacity="0.0"
     inkscape:pageshadow="2"
     inkscape:zoom="0.49497475"
     inkscape:cx="634.30973"
     inkscape:cy="-5.8047293"
     inkscape:document-units="mm"
     inkscape:current-layer="layer1"
     inkscape:document-rotation="0"
     showgrid="false"
     showguides="false"
     units="px"
     inkscape:window-width="1366"
     inkscape:window-height="715"
     inkscape:window-x="-8"
     inkscape:window-y="-8"
     inkscape:window-maximized="1">
    <sodipodi:guide
       position="101.56242,154.73213"
       orientation="1,0"
       id="guide898" />
  </sodipodi:namedview>
  <metadata
     id="metadata5">
    <rdf:RDF>
      <cc:Work
         rdf:about="">
        <dc:format>image/svg+xml</dc:format>
        <dc:type
           rdf:resource="http://purl.org/dc/dcmitype/StillImage" />
        <dc:title></dc:title>
      </cc:Work>
    </rdf:RDF>
  </metadata>
  <g
     inkscape:label="Layer 1"
     inkscape:groupmode="layer"
     id="layer1"
     transform="translate(42.16423,-282.68982)">
    <g
       aria-label=".co.id"
       id="text877"
       style="font-weight:500;font-size:21.6092px;line-height:1;font-family:Lato;-inkscape-font-specification:'Lato Medium';text-align:center;letter-spacing:-0.0358117px;word-spacing:0px;text-anchor:middle;fill:#9a9897;fill-opacity:1;stroke-width:0.225097">
      <path
         d="m 166.32589,336.52257 v 0.0432 c 0,1.03724 0.79954,1.83678 1.88,1.83678 1.08046,0 1.88,-0.79954 1.88,-1.83678 v -0.0432 c 0,-1.03724 -0.79954,-1.83678 -1.88,-1.83678 -1.08046,0 -1.88,0.79954 -1.88,1.83678 z"
         style="font-style:normal;font-variant:normal;font-weight:normal;font-stretch:normal;font-family:'Gotham Rounded';-inkscape-font-specification:'Gotham Rounded';fill:#9a9897;fill-opacity:1;stroke-width:0.225097"
         id="path900" />
      <path
         d="m 177.76454,338.53223 c 1.90161,0 3.13333,-0.60506 4.10575,-1.49104 0.28092,-0.25931 0.4754,-0.60505 0.4754,-1.03724 0,-0.77793 -0.60506,-1.4046 -1.38299,-1.4046 -0.38897,0 -0.7131,0.17288 -0.88598,0.30253 -0.62666,0.49702 -1.29655,0.79954 -2.16092,0.79954 -1.79356,0 -2.93885,-1.4262 -2.93885,-3.19816 v -0.0432 c 0,-1.70712 1.1669,-3.15494 2.8092,-3.15494 0.86437,0 1.46942,0.28092 2.05287,0.73471 0.19448,0.15127 0.51862,0.32414 0.95081,0.32414 0.82115,0 1.49103,-0.64827 1.49103,-1.46942 0,-0.56184 -0.30253,-0.95081 -0.51862,-1.12368 -0.97241,-0.82115 -2.20414,-1.29655 -3.95448,-1.29655 -3.54391,0 -6.07219,2.72275 -6.07219,6.02896 v 0.0432 c 0,3.30621 2.54989,5.98575 6.02897,5.98575 z"
         style="font-style:normal;font-variant:normal;font-weight:normal;font-stretch:normal;font-family:'Gotham Rounded';-inkscape-font-specification:'Gotham Rounded';fill:#9a9897;fill-opacity:1;stroke-width:0.225097"
         id="path902" />
      <path
         d="m 189.95949,338.53223 c 3.60873,0 6.28827,-2.70115 6.28827,-6.02897 v -0.0432 c 0,-3.32781 -2.65793,-5.98574 -6.24505,-5.98574 -3.60874,0 -6.28828,2.70115 -6.28828,6.02896 v 0.0432 c 0,3.32782 2.65793,5.98575 6.24506,5.98575 z m 0.0432,-2.83081 c -1.81518,0 -3.0469,-1.49103 -3.0469,-3.19816 v -0.0432 c 0,-1.70712 1.12368,-3.15494 3.00368,-3.15494 1.81517,0 3.04689,1.49104 3.04689,3.19816 v 0.0432 c 0,1.70713 -1.12367,3.15494 -3.00367,3.15494 z"
         style="font-style:normal;font-variant:normal;font-weight:normal;font-stretch:normal;font-family:'Gotham Rounded';-inkscape-font-specification:'Gotham Rounded';fill:#9a9897;fill-opacity:1;stroke-width:0.225097"
         id="path904" />
      <path
         d="m 197.89745,336.52257 v 0.0432 c 0,1.03724 0.79954,1.83678 1.88,1.83678 1.08046,0 1.88,-0.79954 1.88,-1.83678 v -0.0432 c 0,-1.03724 -0.79954,-1.83678 -1.88,-1.83678 -1.08046,0 -1.88,0.79954 -1.88,1.83678 z"
         style="font-style:normal;font-variant:normal;font-weight:normal;font-stretch:normal;font-family:'Gotham Rounded';-inkscape-font-specification:'Gotham Rounded';fill:#9a9897;fill-opacity:1;stroke-width:0.225097"
         id="path906" />
      <path
         d="m 204.25795,323.96763 c 0,0.9508 0.79954,1.55586 1.83678,1.55586 1.03724,0 1.83678,-0.60506 1.83678,-1.55586 v -0.0432 c 0,-0.9508 -0.79954,-1.53425 -1.83678,-1.53425 -1.03724,0 -1.83678,0.58345 -1.83678,1.53425 z m 0.19448,12.79264 c 0,0.90759 0.73471,1.6423 1.6423,1.6423 0.90759,0 1.6423,-0.73471 1.6423,-1.6423 v -8.55724 c 0,-0.90758 -0.73471,-1.6423 -1.6423,-1.6423 -0.90759,0 -1.6423,0.73472 -1.6423,1.6423 z"
         style="font-style:normal;font-variant:normal;font-weight:normal;font-stretch:normal;font-family:'Gotham Rounded';-inkscape-font-specification:'Gotham Rounded';fill:#9a9897;fill-opacity:1;stroke-width:0.225097"
         id="path908" />
      <path
         d="m 222.43865,324.01085 c 0,-0.90759 -0.73471,-1.6423 -1.6423,-1.6423 -0.90759,0 -1.6423,0.73471 -1.6423,1.6423 v 4.19218 c -0.77793,-0.92919 -1.85839,-1.72873 -3.60874,-1.72873 -2.74436,0 -5.27264,2.1177 -5.27264,5.98574 v 0.0432 c 0,3.86805 2.57149,5.98575 5.27264,5.98575 1.70713,0 2.8092,-0.79954 3.60874,-1.88 v 0.15126 c 0,0.90759 0.73471,1.6423 1.6423,1.6423 0.90759,0 1.6423,-0.73471 1.6423,-1.6423 z m -6.05058,5.25103 c 1.53426,0 2.8092,1.27495 2.8092,3.19816 v 0.0432 c 0,1.92322 -1.27494,3.19816 -2.8092,3.19816 -1.53425,0 -2.8308,-1.27494 -2.8308,-3.19816 v -0.0432 c 0,-1.94482 1.29655,-3.19816 2.8308,-3.19816 z"
         style="font-style:normal;font-variant:normal;font-weight:normal;font-stretch:normal;font-family:'Gotham Rounded';-inkscape-font-specification:'Gotham Rounded';fill:#9a9897;fill-opacity:1;stroke-width:0.225097"
         id="path910" />
    </g>
    <path
       id="rect849"
       style="fill:#0000ff;fill-rule:evenodd;stroke-width:0.280567"
       d="m -38.32866,284.8157 c 3.851398,-2.30129 9.047652,-0.99299 11.258511,2.89097 l 21.0744934,37.02309 c 2.2108718,3.88395 0.6828344,8.62872 -3.1685634,10.93001 -3.851398,2.3013 -8.672353,0.99364 -10.882064,-2.89097 l -20.976724,-36.87642 c -2.209707,-3.88462 -1.157051,-8.77538 2.694347,-11.07668 z"
       sodipodi:nodetypes="sssssss" />
    <path
       id="path852"
       style="fill:#0000ff;fill-rule:evenodd;stroke-width:0.280567"
       d="M 12.170375,284.8157 C 8.3189776,282.51441 3.1227242,283.82271 0.91186534,287.70667 L -20.162627,324.72975 c -2.210872,3.88396 -0.682834,8.62873 3.168563,10.93002 3.851399,2.3013 8.6723536,0.99364 10.8820639,-2.89096 L 14.864723,295.89238 c 2.209707,-3.88462 1.15705,-8.77538 -2.694348,-11.07668 z"
       sodipodi:nodetypes="sssssss" />
    <path
       id="rect854"
       style="fill:#a1d32a;fill-opacity:1;fill-rule:evenodd;stroke-width:0.203071"
       d="m 33.48932,282.69072 c 1.730113,-0.029 3.310126,0.64872 4.602939,1.63714 2.09752,1.60366 3.439039,4.02518 3.439039,5.57308 v 39.55663 c 0,1.15006 -0.87034,3.48192 -2.100196,4.91413 -1.499513,1.74624 -4.092364,2.86092 -6.481299,2.62135 -2.54165,-0.25489 -3.601517,-1.01147 -4.941419,-2.11062 -1.838311,-1.50799 -2.630183,-4.22881 -2.630183,-5.97242 v -39.00907 c 0,-1.68869 1.373099,-4.39008 3.699035,-5.96699 1.226347,-0.83142 2.714436,-1.21476 4.412084,-1.24323 z"
       sodipodi:nodetypes="sssssssssss" />
    <path
       id="path858"
       style="fill:#bf7bb7;fill-opacity:1;fill-rule:evenodd;stroke-width:0.280567"
       d="M 12.170375,284.8157 C 8.3189776,282.51441 3.1227242,283.82271 0.91186534,287.70667 L -20.162627,324.72975 c -2.210872,3.88396 -0.682834,8.62873 3.168563,10.93002 3.851399,2.3013 8.6723536,0.99364 10.8820639,-2.89096 L 14.864723,295.89238 c 2.209707,-3.88462 1.15705,-8.77538 -2.694348,-11.07668 z"
       sodipodi:nodetypes="sssssss" />
    <path
       id="path856"
       style="fill:#f50077;fill-opacity:1;fill-rule:evenodd;stroke-width:0.280567"
       d="m -38.32866,284.8157 c 3.851398,-2.30129 9.047652,-0.99299 11.258511,2.89097 l 21.0744934,37.02309 c 2.2108718,3.88395 0.6828344,8.62872 -3.1685634,10.93001 -3.851398,2.3013 -8.672353,0.99364 -10.882064,-2.89097 l -20.976724,-36.87642 c -2.209707,-3.88462 -1.157051,-8.77538 2.694347,-11.07668 z"
       sodipodi:nodetypes="sssssss" />
    <path
       id="path860"
       style="fill:#ea4828;fill-opacity:1;fill-rule:evenodd;stroke-width:0.280567"
       d="m 54.594742,284.8157 c 3.851398,-2.30129 9.047651,-0.99299 11.25851,2.89097 l 21.074494,37.02308 c 2.210872,3.88396 0.682834,8.62873 -3.168564,10.93002 -3.851397,2.3013 -8.672353,0.99364 -10.882064,-2.89096 L 51.900394,295.89238 c -2.209707,-3.88462 -1.15705,-8.77538 2.694348,-11.07668 z"
       sodipodi:nodetypes="sssssss" />
    <path
       id="path862"
       style="fill:#ffbc00;fill-opacity:1;fill-rule:evenodd;stroke-width:0.280567"
       d="m 105.09377,284.8157 c -3.85139,-2.30129 -9.047645,-0.99299 -11.258504,2.89097 l -21.074492,37.02308 c -2.210871,3.88396 -0.682834,8.62873 3.168563,10.93002 3.851399,2.3013 8.672354,0.99364 10.882064,-2.89096 l 20.976719,-36.87643 c 2.20972,-3.88462 1.15705,-8.77538 -2.69435,-11.07668 z"
       sodipodi:nodetypes="sssssss" />
    <path
       id="path864"
       style="fill:#4dc9dc;fill-opacity:1;fill-rule:evenodd;stroke-width:0.280567"
       d="m 127.87248,284.8157 c 3.8514,-2.30129 9.04765,-0.99299 11.2585,2.89097 l 21.0745,37.02308 c 2.21088,3.88397 0.68284,8.62874 -3.16856,10.93003 -3.8514,2.3013 -8.67235,0.99364 -10.88207,-2.89096 l -20.97672,-36.87644 c -2.20971,-3.88462 -1.15705,-8.77538 2.69435,-11.07668 z"
       sodipodi:nodetypes="sssssss" />
    <path
       id="path866"
       style="fill:#008798;fill-opacity:1;fill-rule:evenodd;stroke-width:0.280567"
       d="m 136.40939,284.8157 c -3.8514,-2.30129 -9.04766,-0.99299 -11.25851,2.89097 l -21.0745,37.02308 c -2.21086,3.88396 -0.68283,8.62873 3.16857,10.93002 3.8514,2.3013 8.67235,0.99364 10.88206,-2.89096 l 20.97673,-36.87643 c 2.20971,-3.88462 1.15705,-8.77538 -2.69435,-11.07668 z"
       sodipodi:nodetypes="sssssss" />
    <path
       id="path881"
       style="fill:#b90075;fill-opacity:1;fill-rule:evenodd;stroke-width:0.280568"
       d="m -13.079165,312.28558 -7.083476,12.44406 c -2.210871,3.88396 -0.682629,8.62897 3.168769,10.93027 1.244072,0.74336 2.588994,1.10806 3.914707,1.13309 1.325713,-0.0249 2.670636,-0.38973 3.9147072,-1.13309 3.8513978,-2.3013 5.3796405,-7.04631 3.1687688,-10.93027 z" />
    <path
       id="path886"
       style="fill:#ff7300;fill-opacity:1;fill-rule:evenodd;stroke-width:0.280568"
       d="m 79.844469,312.28558 -7.083477,12.44406 c -2.210871,3.88396 -0.683161,8.62897 3.168236,10.93027 1.244182,0.74342 2.589413,1.10812 3.915241,1.13309 1.325714,-0.0249 2.670635,-0.38973 3.914708,-1.13309 3.851397,-2.3013 5.37964,-7.04631 3.168769,-10.93027 z" />
    <path
       id="path891"
       style="fill:#006475;fill-opacity:1;fill-rule:evenodd;stroke-width:0.280568"
       d="m 132.13343,283.68003 c -2.79733,0.0392 -5.5321,1.47859 -6.98241,4.02645 l -0.57697,1.01383 c -0.86559,2.25057 -0.69651,4.88554 0.60424,7.17225 l 6.96263,12.2398 6.96263,-12.2398 c 1.30075,-2.28671 1.46982,-4.92168 0.60423,-7.17225 l -0.57696,-1.01383 c -1.45032,-2.54786 -4.18508,-3.98725 -6.98242,-4.02645 -0.005,5e-5 -0.01,-9e-5 -0.015,0 z" />
    <ellipse
       style="fill:#00a423;fill-opacity:1;fill-rule:evenodd;stroke-width:0.395846"
       id="path896"
       cx="33.471233"
       cy="328.95959"
       rx="8.082736"
       ry="8.0582914" />
  </g>
</svg>
